<svg xmlns="http://www.w3.org/2000/svg" viewBox="0 0 529.38 326.32"><defs><style>.cls-1{fill:#ee7d0b;}.cls-1,.cls-2,.cls-3,.cls-4,.cls-6{stroke:#393434;stroke-linecap:round;stroke-linejoin:round;}.cls-1,.cls-2,.cls-6{stroke-width:2px;}.cls-2,.cls-3{fill:#2a4190;}.cls-3,.cls-4{stroke-width:4px;}.cls-4,.cls-6,.cls-7{fill:none;}.cls-5{fill:#46a72d;}.cls-7{fill-rule:evenodd;}</style></defs><g id="vogel"><path class="cls-1" d="M123.52,71.9c-1.9-1.89,3-7,4.22-7.8s4.43-9.7,8.44-11.18a18.72,18.72,0,0,1,10.12-1.05c3.8.42,7.81,2.25,11.82-.25s4-3.76,4-6.72-3.37-3.37-2.74-6.75,12-10.12,16.88-11.81,20.24-5.69,24.67-6.11,10.76-1.69,14.14-1.48,5.06,1.9,5.48,2.95-15,11.18-16.87,13.08S193.34,44.48,193.34,47s4.22,7.81,7,9.92,6.54,5.48,11.18,6.33a64.55,64.55,0,0,0,15.4.42c3.37-.42,9.91-1.48,10.76-.21s1.05,3.16,0,7S232.36,80.34,230,81s-8.65-2.74-12.44-3-14.56-.83-19.41,0-14.73,6.88-17.47,9.91c-3.94,4.38-9.31,8.84-12.27,14.14-2.16,3.87-2.74,38.6-3.37,41.34s-.64,10.33-2.75,10.33S139.55,113,139.76,104.6s1.05-10.55,4.86-15.4c3.21-4.1,6.75-3,7.59-9.7.24-1.93-2.11-7.17-7.38-9.92a20.65,20.65,0,0,0-12-2.32c-2.49.27-2.73,1.07-6.32,3.8A4.48,4.48,0,0,1,123.52,71.9Z" transform="translate(-24.6 -17.73)"/></g><g id="wasser"><path class="cls-2" d="M25.92,321.32v-13s9.07-8.17,17.24-8.17,16.6,7.53,25.68,7.27,17.37-6.88,27.1-6.62,19.32,6.62,27.88,6.62,19.19-7.27,25.41-7.27,15.17,8,15.43,8.43,0,12.71,0,12.71-7-7.13-14.78-7-15.95,7.26-28.92,7S103.31,315,95.35,315s-9.66,6.24-26.51,6.36-16.34-7-25.68-7S25.92,321.32,25.92,321.32Z" transform="translate(-24.6 -17.73)"/></g><g id="wasser_Kopie" data-name="wasser Kopie"><path class="cls-2" d="M25.92,298.89v-13s9.07-8.17,17.24-8.17,16.6,7.52,25.68,7.26,17.37-6.87,27.1-6.61S115.26,285,123.82,285s19.19-7.26,25.41-7.26,15.17,8,15.43,8.43,0,12.71,0,12.71-7-7.13-14.78-7-15.95,7.27-28.92,7-17.65-6.36-25.61-6.36-9.66,6.24-26.51,6.36-16.34-7-25.68-7S25.92,298.89,25.92,298.89Z" transform="translate(-24.6 -17.73)"/></g><g id="wasser_Kopie_Kopie" data-name="wasser Kopie Kopie"><path class="cls-2" d="M25.92,277.1v-13S35,256,43.16,256s16.6,7.52,25.68,7.26,17.37-6.88,27.1-6.62,19.32,6.62,27.88,6.62S143,256,149.23,256s15.17,8,15.43,8.42,0,12.71,0,12.71-7-7.13-14.78-7-15.95,7.26-28.92,7-17.65-6.35-25.61-6.35-9.66,6.24-26.51,6.36-16.34-7-25.68-7S25.92,277.1,25.92,277.1Z" transform="translate(-24.6 -17.73)"/></g><g id="linie"><polyline class="cls-3" points="2 217.41 37.07 217.41 98.49 217.41 520.54 217.41"/></g><g id="linie-oben"><line class="cls-4" x1="2" y1="105.71" x2="109.07" y2="105.71"/><line class="cls-4" x1="149.07" y1="105.71" x2="520.55" y2="105.71"/></g><g id="tanne"><path class="cls-5" d="M551.79,220.26c.5.25,1.88,1.75.76,2.5s-35.88-1-37.26-.75-1.24,2.13-1.24,2.13v11H503.79V223.76a2.7,2.7,0,0,0-1-2c-1-.75-35.62,1.63-36.5.88s-1.54-.5-1.22-2.18,20.6-12.21,21.1-13.09c.8-1.39.74-1.5-.12-2.11-2.5-1.75-10.38-1-11.26-1.38s-1.5.13-1-1.62,18.13-12.5,18.76-13,.24-1.75-.63-2.62-7.25-.25-7.87-.9-1.38-.23-.88-2,14.09-12.66,14.25-14c.25-2.13,0,0-.37-1.37s-4.24-1.24-5.38-2.5,4.57-6.89,8.75-14c2.53-4.31,8.5-15.66,8.5-15.66,0,1,3.23,8.08,7.37,14.9,4.56,7.5,9.63,13.13,9.38,14.45-.17.86-6,2.07-6.5,2.69s-.12,1.38-.25,1.75,12.5,11.63,13.25,13,1.62,2,.25,2.75c-.77.43-6.75.25-7.25.5s-.5,1.38-.5,2.25,17.62,13.13,17.88,13.63.87,1.25.24,2-10.62.5-11.12,1-.88.75-.38,2.5S551.29,220,551.79,220.26Z" transform="translate(-24.6 -17.73)"/><path class="cls-6" d="M551.79,220.26c-.5-.25-20-10.87-20.5-12.62s-.12-2,.38-2.5,10.5-.25,11.12-1,0-1.5-.24-2-17.88-12.75-17.88-13.63,0-2,.5-2.25,6.48-.07,7.25-.5c1.37-.76.5-1.37-.25-2.75s-13.38-12.62-13.25-13-.25-1.12.25-1.75,6.33-1.83,6.5-2.69c.25-1.32-4.82-6.95-9.38-14.45-4.14-6.82-7.37-13.93-7.37-14.9,0,0-6,11.35-8.5,15.66-4.18,7.12-10,12.62-8.75,14s5,1.12,5.38,2.5.62-.76.37,1.37c-.16,1.35-13.75,12.28-14.25,14s.25,1.32.88,2,7,0,7.87.9,1.25,2.12.63,2.62-18.26,11.25-18.76,13,.13,1.24,1,1.62,8.76-.37,11.26,1.38c.86.61.92.72.12,2.11-.5.88-20.78,11.42-21.1,13.09s.35,1.43,1.22,2.18,35.5-1.63,36.5-.88a2.7,2.7,0,0,1,1,2v11.38h10.26v-11s-.13-1.88,1.24-2.13,36.13,1.5,37.26.75S552.29,220.51,551.79,220.26Z" transform="translate(-24.6 -17.73)"/><path class="cls-7" d="M522.76,230" transform="translate(-24.6 -17.73)"/></g><g id="daniel"><path d="M254.18,94.79c.5-.13,1.52-.33,3.06-.59q4.59-.78,6-2.1a5,5,0,0,0,1.14-3.17q0-.59.35-14.88l-.05-5.36.05-6.49-.15-16.63v-2a2.64,2.64,0,0,0-.69-2,3.34,3.34,0,0,0-1.93-.34,18.05,18.05,0,0,0-3,.29,34.23,34.23,0,0,0-3.9.39l-.94.15,0-4.3a62,62,0,0,1,8.34-1.8,139.81,139.81,0,0,1,22.1-1.47q11,0,16,1.22a32.26,32.26,0,0,1,22.23,17.3,32.31,32.31,0,0,1,3.23,14.42q0,9.86-4.34,16.9a31.19,31.19,0,0,1-12.48,11.3q-5.73,3-15.55,3l-10.11-.39-3-.13-4,.08-1.19-.08-4.14.08-5.48,0c-.2,0-1.87.11-5,.32-1.06.06-2.44.1-4.15.13-1,0-1.84,0-2.37,0C254.22,98,254.18,96.71,254.18,94.79Zm23.94-54.33c-.07,1-.1,1.72-.1,2.15l.1,8.29v7.22c.06,2.34.1,4.38.1,6.14l-.1,4.63.15,7.76-.15,4.78q0,6.67,2.51,9.07,3.66,3.41,10.07,3.41a20.71,20.71,0,0,0,7.21-.93,19.86,19.86,0,0,0,7.67-4.92,20.28,20.28,0,0,0,4.32-8.7,45.83,45.83,0,0,0,1.48-11.63q0-9.84-3.19-16.08a21.85,21.85,0,0,0-8.7-9.38,27.77,27.77,0,0,0-21.37-1.81Z" transform="translate(-24.6 -17.73)"/><path d="M376.27,89.66l1.13.73a1.41,1.41,0,0,1,.55.83l.05.25q-1.19,4.35-3.11,6a7.13,7.13,0,0,1-4.79,1.63,8,8,0,0,1-5-1.58,13.69,13.69,0,0,1-3.83-5.59,13.56,13.56,0,0,1-6,5.59,21.42,21.42,0,0,1-9.43,1.88q-5.13,0-7.55-2.13a7.08,7.08,0,0,1-2.42-5.59,8.2,8.2,0,0,1,.72-3.27,11.12,11.12,0,0,1,2.32-3.29,22.75,22.75,0,0,1,5.16-3.59c.36-.2,1.61-.75,3.75-1.66L360.13,75c.1-1.23.15-2.49.15-3.76,0-4.39-.54-7.39-1.63-9a3.85,3.85,0,0,0-3.45-1.47,10.94,10.94,0,0,0-4.54.93,6.65,6.65,0,0,0-3,2.4,11.78,11.78,0,0,0-1.19,4,7.28,7.28,0,0,1-.64,2.49,6.28,6.28,0,0,1-2.69,1.68c-1.3.51-2.18.87-2.64,1.1a10.6,10.6,0,0,1-4.24,1.27,2.05,2.05,0,0,1-.69-1.66,9.21,9.21,0,0,1,1.18-4.78,21.06,21.06,0,0,1,5.36-5.5A25.19,25.19,0,0,1,348.78,59a34.2,34.2,0,0,1,10.37-1.37,14.81,14.81,0,0,1,6.78,1.44,8,8,0,0,1,3.95,4.27Q371,66.18,371,73.55l-.1,8,.1,5.91V89a5,5,0,0,0,.56,2.8,1.69,1.69,0,0,0,1.43.76,1.51,1.51,0,0,0,.92-.29l1.48-2.3ZM360.08,78.33a31.45,31.45,0,0,0-6.34,3.1,15,15,0,0,0-4.91,4.37,7.46,7.46,0,0,0-1,4,4.86,4.86,0,0,0,1.28,3.47,3.94,3.94,0,0,0,3,1.36A7.23,7.23,0,0,0,356.78,93q2.61-2.1,3.06-3.34c.29-.83.44-3.19.44-7.06C360.28,81.2,360.22,79.77,360.08,78.33Z" transform="translate(-24.6 -17.73)"/><path d="M381.06,96.39a10,10,0,0,1,2.36-.78,12,12,0,0,0,3.16-.74,2.2,2.2,0,0,0,1-1.07,18.72,18.72,0,0,0,.3-4.3V85.24l.05-3.47-.15-5.13V73.56a21.15,21.15,0,0,0-.5-5A2.83,2.83,0,0,0,386,67.06a15.93,15.93,0,0,0-4.69-1.91l-.05-2.34a8.2,8.2,0,0,1,1.16-.27c.35,0,1.67-.37,4-1,1.8-.65,3-1.1,3.5-1.36.16-.1.43-.25.79-.44a15.33,15.33,0,0,1,1.33-1,18.94,18.94,0,0,0,3.55-3.56l2.67-.2-.1,5.52a10.82,10.82,0,0,0-.1,1.32c0,.26,0,1,.1,2.25a28.17,28.17,0,0,1,7.44-4.89,22,22,0,0,1,8.32-1.81,14.54,14.54,0,0,1,8.13,2.28A10.88,10.88,0,0,1,426.65,65q1.1,3,1.09,12l-.2,16a3.82,3.82,0,0,0,.4,1.86,8.93,8.93,0,0,0,2.71.69l2.42.46a2.64,2.64,0,0,1,.44,1.54c0,.38,0,.91-.05,1.58l-9.67-.68-2.86.1h-2.27l-6.52.44h-1.67c0-.41-.05-.73-.05-1a17.54,17.54,0,0,1,.1-1.84c.46-.1,1.61-.26,3.45-.49a11.91,11.91,0,0,0,1.63-.34c.66-.26,1-.52,1.13-.78a8.36,8.36,0,0,0,.4-3.18q0-4.11-.05-6.31l.05-5.67q0-10.32-1.33-12.86a6,6,0,0,0-5.61-3.67,13.35,13.35,0,0,0-5.71,1.4,25.72,25.72,0,0,0-6.1,4.23l-.1.83.1,3.08-.1,3.27.2,7.81-.1,1.22c0,5.31.21,8.3.64,9S401.1,95.12,404,96a4.93,4.93,0,0,1-.2,3c-1,0-1.88.05-2.57.05a24.84,24.84,0,0,1-3.26-.33l-5.29-.11q-4,0-11.43.34a2.67,2.67,0,0,1-.19-1C381,97.67,381,97.16,381.06,96.39Z" transform="translate(-24.6 -17.73)"/><path d="M436.42,98.84l-.1-3.17,5.58-.74a2.93,2.93,0,0,0,1.7-1,5.8,5.8,0,0,0,.47-3v-.54c0-.39,0-1.1.08-2.12s.07-1.93.07-2.71q0-.93-.15-3.57l.08-2.44-.08-2.29.15-8a17.16,17.16,0,0,0-.3-3.13,4.34,4.34,0,0,0-2-1.27,21,21,0,0,0-5-.78V61.44a24.32,24.32,0,0,0,8.93-2.1,20.74,20.74,0,0,0,5.67-4.15h3.31q.19,6.06.2,15.72l-.35,19.92a31.82,31.82,0,0,0,.2,3.71,30.88,30.88,0,0,0,5,1.08,10.3,10.3,0,0,1,2.12.49l-.09,2.68c-.89,0-1.55,0-2,0s-1.25,0-2.27-.1q-5-.24-13.45-.24c-1.6,0-3.16.06-4.67.17S437,98.84,436.42,98.84Zm6.91-58.25a5.77,5.77,0,0,1,1.73-4.32,6.06,6.06,0,0,1,4.44-1.69,6.86,6.86,0,0,1,4.84,1.79,5.37,5.37,0,0,1,1.92,4,7.83,7.83,0,0,1-.76,3.32,6,6,0,0,1-2.42,2.66,6.44,6.44,0,0,1-3.38,1,6.07,6.07,0,0,1-4.37-2A6.54,6.54,0,0,1,443.33,40.59Z" transform="translate(-24.6 -17.73)"/><path d="M467.51,72.93a21.68,21.68,0,0,1,2.27-5.52,25.15,25.15,0,0,1,5.9-6.26,19.32,19.32,0,0,1,5.65-3,20.21,20.21,0,0,1,5.28-.93,32.36,32.36,0,0,1,7.5.71,14.63,14.63,0,0,1,4.79,2,23.28,23.28,0,0,1,4.44,3.85,16.45,16.45,0,0,1,2.74,4.59,18.74,18.74,0,0,1,1.16,6.39l-5.48-.09c-1.51,0-4.84-.14-10-.43-1.91-.16-3.22-.24-4-.24l-5.33.09h-4.24a7.91,7.91,0,0,0-.1,1.18,24.86,24.86,0,0,0,.64,5.46,17.23,17.23,0,0,0,1.93,5,14,14,0,0,0,3.18,3.75,12.63,12.63,0,0,0,3.92,2.25l2.87.93a32.24,32.24,0,0,0,5.08-.25A22.45,22.45,0,0,0,500,91.25a24.54,24.54,0,0,0,4.36-2.57c1.19.85,2.18,1.62,3,2.3a28.47,28.47,0,0,1-9,6.86A24.85,24.85,0,0,1,487.84,100a24.21,24.21,0,0,1-6.36-.68,19.29,19.29,0,0,1-6-2.69,17.84,17.84,0,0,1-4.59-4.5,20.21,20.21,0,0,1-2.86-5.52,19.94,19.94,0,0,1-1.24-6A39,39,0,0,1,467.51,72.93Zm28.67-2.07a14.24,14.24,0,0,0-1.08-5.25,8.34,8.34,0,0,0-3.21-3.9,7.63,7.63,0,0,0-10.36,1.49,12.36,12.36,0,0,0-3,7.81l11.25.1q1.08,0,3.06-.15c.95-.09,1.63-.13,2-.13Z" transform="translate(-24.6 -17.73)"/><path d="M511,96.66a6.2,6.2,0,0,1,2.88-.94c2.28-.26,3.59-.61,3.92-1,.66-.84,1-2.57,1-5.17V75.76l-.09-3.26V62.64l-.1-11.27V49.42a19.76,19.76,0,0,0-.65-5.9,7.16,7.16,0,0,0-3.73-1,10.06,10.06,0,0,1-2.24-.24,15.83,15.83,0,0,1-.14-1.81,4.23,4.23,0,0,1,.1-.88,34.85,34.85,0,0,0,8.07-2,27.22,27.22,0,0,0,6.41-3.15l1.37,0c.29,0,.71,0,1.27,0q.29,16.88.29,23.12c0,1.24,0,2.23-.1,3v.29l.1.93V83.37l.1,7.13v1.17a4.87,4.87,0,0,0,.69,3,3.82,3.82,0,0,0,2.5.78c.68.07,2,.23,4.07.49a7.64,7.64,0,0,1,.24,1.66c0,.33,0,.78-.09,1.37l-3.9-.18c-2.17-.14-4.91-.22-8.19-.22l-1.83,0q-2.82,0-8.14.44h-3.61Z" transform="translate(-24.6 -17.73)"/></g><g id="stiftung"><path d="M228,256.89a30.39,30.39,0,0,1,.95,5,67.25,67.25,0,0,1,.63,7.81,9.6,9.6,0,0,1-.21,1.91l-.53.14-3.78-.24-.62-.1q-2.31-6.45-4.62-8.74a13,13,0,0,0-9.39-3.91,12.33,12.33,0,0,0-8.16,2.52,7.81,7.81,0,0,0-3,6.23q0,3.13,3,6t12.49,5.51a61.57,61.57,0,0,1,7.74,2.83,22.7,22.7,0,0,1,6.9,4.24,15.42,15.42,0,0,1,5.5,12.84,23.52,23.52,0,0,1-1.83,9,13.69,13.69,0,0,1-3.2,4.45A31,31,0,0,1,225,315.9a25.11,25.11,0,0,1-6.85,2.86,39.16,39.16,0,0,1-9.1.87,47.56,47.56,0,0,1-8.76-1L194,317a11,11,0,0,1-3.31-1.22,1.86,1.86,0,0,1-.47-.93v-.54q0-.52-.26-6.69c-.07-2.11-.11-3.61-.11-4.49v-1.85l4.88-.1q2.52,5.43,3.25,6.56a16.44,16.44,0,0,0,3.59,4.05,15.49,15.49,0,0,0,4.68,2.45,18.79,18.79,0,0,0,5.92.9,20,20,0,0,0,6.23-1.12,11.49,11.49,0,0,0,5.48-3.69,8.66,8.66,0,0,0,2.06-5.5c0-2.41-1.2-4.65-3.62-6.7-1.46-1.27-5.42-3-11.85-5.08s-10.89-4-13.38-5.67a18.85,18.85,0,0,1-8-14.71,17.14,17.14,0,0,1,6-13.19q6-5.42,17.62-5.42a49.52,49.52,0,0,1,7.45.83A58.73,58.73,0,0,1,228,256.89Z" transform="translate(-24.6 -17.73)"/><path d="M241.58,281.68a33.07,33.07,0,0,0,8.94-4.78,30.65,30.65,0,0,0,5.9-7.61h2.94a7.54,7.54,0,0,1,.47,2.69c0,1.69,0,3-.05,3.95l-.16,2.88c0,.17,0,.54.06,1.13l1.2.05,4.93-.2,3.94-.1a10,10,0,0,1,.31,2.32,11,11,0,0,1-.37,2.62,17.6,17.6,0,0,1-2.62.29,14.21,14.21,0,0,1-1.68-.2h-2.72l-.95-.05-2.52.15-.1,18.65a43.27,43.27,0,0,0,.23,6.77,3.14,3.14,0,0,0,3.91,3.1,6.69,6.69,0,0,0,2.1-.25,11.79,11.79,0,0,0,2.31-1.41c.21-.16.54-.39,1-.68a11.72,11.72,0,0,1,2,1.85l.21.58a12.39,12.39,0,0,1-5.17,4.23,16.82,16.82,0,0,1-7.1,1.54,11,11,0,0,1-7.92-2.88c-2-1.92-3.05-4.89-3.05-8.93l.21-8.58V284.92l-1.62-.1-3.78.1-.68-.25a1.42,1.42,0,0,1-.32-.82C241.47,283.66,241.51,282.93,241.58,281.68Z" transform="translate(-24.6 -17.73)"/><path d="M273.73,318.71l-.1-3.18,5.93-.73a3.27,3.27,0,0,0,1.81-1,5.66,5.66,0,0,0,.49-2.95v-.54c0-.39,0-1.1.08-2.13s.08-1.92.08-2.71c0-.61,0-1.8-.16-3.56l.08-2.44-.08-2.3.16-8a15.52,15.52,0,0,0-.32-3.12,4.57,4.57,0,0,0-2.11-1.27,22.34,22.34,0,0,0-5.33-.78V281.3a26.71,26.71,0,0,0,9.49-2.1,21.74,21.74,0,0,0,6-4.15h3.51q.21,6.06.21,15.73l-.37,19.92a29.75,29.75,0,0,0,.21,3.71,33.8,33.8,0,0,0,5.3,1.07,13.61,13.61,0,0,1,2.26.49l-.11,2.69c-.94,0-1.64,0-2.09,0s-1.33,0-2.41-.1q-5.34-.24-14.29-.24c-1.71,0-3.37.05-5,.17S274.33,318.71,273.73,318.71Zm7.35-58.26a5.63,5.63,0,0,1,1.83-4.32,6.73,6.73,0,0,1,4.72-1.68,7.51,7.51,0,0,1,5.14,1.78,5.25,5.25,0,0,1,2.05,4,7.51,7.51,0,0,1-.81,3.32,6.15,6.15,0,0,1-2.57,2.66,7.15,7.15,0,0,1-3.6,1,6.68,6.68,0,0,1-4.64-2A6.36,6.36,0,0,1,281.08,260.45Z" transform="translate(-24.6 -17.73)"/><path d="M305.15,318.71l0-2.74a28.81,28.81,0,0,1,3.75-1.15,11.22,11.22,0,0,0,3.23-1.09,2,2,0,0,0,.58-1.52v-1.07c.14-3,.21-4.72.21-5.08s0-.7-.06-1.22l-.05-.59.05-.63v-.44l-.31-8.4-.05-9.37-.11-.93c-.63,0-1.56,0-2.78-.1h-3.3c-.21,0-.51-.08-.9-.16,0-.88-.05-1.59-.05-2.11a3.25,3.25,0,0,1,.74-2.22c1.05,0,3.11-.12,6.19-.34a34,34,0,0,1,2-10.92,24.21,24.21,0,0,1,4.69-8.18l1.36-1.41a24.75,24.75,0,0,1,6.38-3.83,19.36,19.36,0,0,1,6.9-1.1,15.38,15.38,0,0,1,6.42,1.17,7.16,7.16,0,0,1,3.52,3,7.4,7.4,0,0,1,1,3.4,4.87,4.87,0,0,1-1.73,3.58,5.48,5.48,0,0,1-3.83,1.64,5.71,5.71,0,0,1-3.1-1,11.05,11.05,0,0,1-2.54-3.05,12.82,12.82,0,0,0-2.34-2.95,3.77,3.77,0,0,0-2.2-.59,3.93,3.93,0,0,0-2.83,1.17,6.4,6.4,0,0,0-1.68,3.37,51.11,51.11,0,0,0-.47,8.79l-.06,5.37.06,1.42,1,.05,6.2-.15a10.91,10.91,0,0,1,1.46.15c.49.39.74.71.74,1l-.11.93v1.32a6.78,6.78,0,0,1-.16,1.12,2.22,2.22,0,0,1-1.09.25h-.47l-4,.1a9.35,9.35,0,0,1-1.52-.1h-.47a8.8,8.8,0,0,0-1.57.21l0,2.39q0,.35,0,1.08c.05,1.85.07,3.12.07,3.8l0,7.18.08,5.22-.05,4.19q-.11,4.44.94,5.37,1.51,1.41,6.31,1.91a4.92,4.92,0,0,1,1.62.34,11.38,11.38,0,0,1,.21,1.51,7.69,7.69,0,0,1-.21,1.51H329q-.48,0-6.13-.34l-2.83-.19q-4.08,0-6.33.17Q312.49,318.57,305.15,318.71Z" transform="translate(-24.6 -17.73)"/><path d="M337.84,281.68a33.23,33.23,0,0,0,8.94-4.78,30.89,30.89,0,0,0,5.9-7.61h2.94a7.76,7.76,0,0,1,.47,2.69c0,1.69,0,3,0,3.95l-.16,2.88c0,.17,0,.54.05,1.13l1.21.05,4.93-.2,3.93-.1a10.1,10.1,0,0,1,.32,2.32,11,11,0,0,1-.37,2.62,17.74,17.74,0,0,1-2.62.29,14.21,14.21,0,0,1-1.68-.2h-2.73l-.94-.05-2.52.15-.1,18.65a43.27,43.27,0,0,0,.23,6.77,6.31,6.31,0,0,0,1.23,2.56,6.51,6.51,0,0,0,2.68.54,6.77,6.77,0,0,0,2.1-.25,11.79,11.79,0,0,0,2.31-1.41c.21-.16.54-.39,1-.68a11.81,11.81,0,0,1,2.05,1.85l.21.58a12.46,12.46,0,0,1-5.17,4.23,16.83,16.83,0,0,1-7.11,1.54,11.06,11.06,0,0,1-7.92-2.88c-2-1.92-3-4.89-3-8.93l.21-8.58V284.92l-1.63-.1-3.77.1-.68-.25a1.42,1.42,0,0,1-.32-.82C337.73,283.66,337.77,282.93,337.84,281.68Z" transform="translate(-24.6 -17.73)"/><path d="M370.78,279.2c.38-.13.7-.22.94-.29h15.63l1.16.1.1,3.27-.15,4.77.05,2.49-.05,7.36v5a41.23,41.23,0,0,0,.57,7.75,6.18,6.18,0,0,0,2.55,3.24,7.9,7.9,0,0,0,4.27,1.1,13.8,13.8,0,0,0,3.83-.44,13.52,13.52,0,0,0,3.38-1.66,16,16,0,0,0,2.44-1.75,10,10,0,0,0,2.1-2.88l.37-12.14c.07-1.27.1-2.31.1-3.12s0-1.91-.07-3.19-.08-2-.08-2.17l.05-1.8-.11-1.08a8.61,8.61,0,0,0-3.51-.92l-3.51-.25a3.27,3.27,0,0,1-.58-.34,7.69,7.69,0,0,1-.21-1.46,11.52,11.52,0,0,1,.16-1.66,20.79,20.79,0,0,1,3-.25l8.11.1q3.26,0,8-.1l.1,3.66-.2,4.68.1,5.85-.05,8.39-.11,3.75.06,2.54c-.14,1.69-.21,2.65-.21,2.87a2.82,2.82,0,0,0,.47,1.81,1.24,1.24,0,0,0,.89.58l4.83-.14.63.09c.1,1.14.15,1.8.15,2a6,6,0,0,1-.15,1.07,28.64,28.64,0,0,0-4,.34,102,102,0,0,0-12.28,3.47l-2.1-.1-.05-8c-.42.33-1,.83-1.83,1.52a32.85,32.85,0,0,1-7.92,5.15,18.38,18.38,0,0,1-6.93,1.34,15.72,15.72,0,0,1-7.45-1.66,11.35,11.35,0,0,1-4.61-4.09,13.8,13.8,0,0,1-1.47-5.47c-.07-.61-.11-3.8-.11-9.55l.06-1.56q.25-4.79.26-7.07c0-2.6-.05-4.34-.16-5.22a3.8,3.8,0,0,0-.52-1.46,7.16,7.16,0,0,0-1.73-.44,15.53,15.53,0,0,1-4.2-1c-.18-.1-.26-.31-.26-.63a4.45,4.45,0,0,1,.08-.79C370.65,280.49,370.71,280,370.78,279.2Z" transform="translate(-24.6 -17.73)"/><path d="M429.79,316.26a11.82,11.82,0,0,1,2.52-.79,13.85,13.85,0,0,0,3.36-.73,2.3,2.3,0,0,0,1.05-1.07,18.05,18.05,0,0,0,.31-4.31v-4.25l.05-3.47-.15-5.14v-3.08a19.85,19.85,0,0,0-.53-5,3,3,0,0,0-1.31-1.47,17.67,17.67,0,0,0-5-1.9l-.06-2.35a9.07,9.07,0,0,1,1.24-.27c.36,0,1.77-.36,4.22-.95,1.92-.65,3.16-1.11,3.72-1.37l.84-.44c.42-.32.9-.65,1.42-1a19.88,19.88,0,0,0,3.78-3.57l2.83-.19-.11,5.52a10.82,10.82,0,0,0-.1,1.32c0,.26,0,1,.1,2.24a30.56,30.56,0,0,1,7.91-4.88,24.42,24.42,0,0,1,8.85-1.81,16.2,16.2,0,0,1,8.64,2.28,11,11,0,0,1,4.87,5.25q1.15,3,1.16,12l-.21,15.95a3.71,3.71,0,0,0,.42,1.86,10,10,0,0,0,2.88.69l2.57.46a2.49,2.49,0,0,1,.47,1.53c0,.39,0,.92-.05,1.59l-10.28-.68-3,.1h-2.42l-6.92.43h-1.78c0-.41-.06-.72-.06-.94a17.54,17.54,0,0,1,.11-1.84c.49-.1,1.71-.26,3.67-.49a15.41,15.41,0,0,0,1.73-.34c.7-.26,1.1-.53,1.21-.79a8,8,0,0,0,.42-3.17c0-2.74,0-4.85-.06-6.31l.06-5.67q0-10.32-1.41-12.86a6.41,6.41,0,0,0-6-3.67,15.07,15.07,0,0,0-6.07,1.39,27.72,27.72,0,0,0-6.49,4.23l-.1.83.1,3.08-.1,3.27.21,7.82-.11,1.22c0,5.3.23,8.3.69,9s2.21,1.45,5.24,2.29a6.85,6.85,0,0,1,.16,1.22,7.25,7.25,0,0,1-.37,1.8c-1.09,0-2,0-2.73,0a27.91,27.91,0,0,1-3.47-.33l-5.63-.11q-4.2,0-12.14.34a2.47,2.47,0,0,1-.21-1C429.74,317.54,429.76,317,429.79,316.26Z" transform="translate(-24.6 -17.73)"/><path d="M502.13,325.25q-7.08-1.67-9.44-3.88a6.67,6.67,0,0,1-2.36-5,4.38,4.38,0,0,1,1.26-3.37q1.25-1.17,11.48-6.59-5.19-2.88-7.13-5.57a11.88,11.88,0,0,1-2.52-6.93,17.89,17.89,0,0,1,1.37-6.54,18.5,18.5,0,0,1,8-7.45Q508,277.5,516,277.5a34.87,34.87,0,0,1,5.61.39,27.43,27.43,0,0,1,3.67,1.07l2,.68a35.19,35.19,0,0,1,4.67,3.23,66,66,0,0,0,7.29-1.71,12.77,12.77,0,0,1,3.36-.54,2,2,0,0,1,1.67.83c.42.55.63,1.86.63,3.91a6.52,6.52,0,0,1-.78,3.73,2.15,2.15,0,0,1-1.63,1.05,8,8,0,0,1-1.84-.68,17.54,17.54,0,0,0-5.71-1.61,18.25,18.25,0,0,1,1.26,6.39,11.87,11.87,0,0,1-2.23,6.81,15.58,15.58,0,0,1-6.11,5.16,24.14,24.14,0,0,1-10.81,2.68c-2.31,0-3.88-.05-4.72-.14-1.23-.13-2.94-.43-5.14-.88a31.08,31.08,0,0,0-6.24,3.9,2.38,2.38,0,0,0-.9,1.86,2.29,2.29,0,0,0,.92,1.76,6,6,0,0,0,3.07,1.07c.28,0,.66.1,1.15.2,1.86.13,4.32.19,7.4.19.38,0,1.63-.05,3.72-.14.6,0,1.11,0,1.53,0q12.52,0,17.57,3.71t5,9.08a10.32,10.32,0,0,1-1.76,5.64,13.63,13.63,0,0,1-4.74,4.49,33.36,33.36,0,0,1-8.63,3.1,51.28,51.28,0,0,1-12.09,1.37,56.53,56.53,0,0,1-12.51-1.27,18.84,18.84,0,0,1-8.68-4.15,6.16,6.16,0,0,1-2.42-4.59,5.71,5.71,0,0,1,2-4.27Q493.64,327.88,502.13,325.25Zm16.1,15.48q7.77-.84,12.07-3.91,2.73-2,2.73-3.95a4.27,4.27,0,0,0-.58-2.1,6.46,6.46,0,0,0-2.07-2,9.45,9.45,0,0,0-3.39-1.39,40.51,40.51,0,0,0-7.08-.49l-6.45-.1q-8.5,0-11.41,2a6,6,0,0,0-2.91,5.17,5,5,0,0,0,1.63,3.4,11.57,11.57,0,0,0,5.45,2.66,33.3,33.3,0,0,0,8.24,1C515.3,340.92,516.55,340.86,518.23,340.73Zm-3-35.11a7.72,7.72,0,0,0,6-2.81q2.49-2.81,2.49-8.71,0-7.82-2.23-10.5a7.7,7.7,0,0,0-6.27-2.69c-.35,0-1.27.09-2.78.25a7.37,7.37,0,0,0-4.59,3.32,13,13,0,0,0-2.07,7.71c0,.88.12,2.62.37,5.23a8,8,0,0,0,.78,2.88,10.47,10.47,0,0,0,1.95,2.95,7.75,7.75,0,0,0,2.8,1.71A10,10,0,0,0,515.24,305.62Z" transform="translate(-24.6 -17.73)"/></g><g id="theysohn"><path d="M32.05,139.12h3.09l.5.79A17.77,17.77,0,0,0,37.79,143q.66.15,6.85.15c2.57,0,4.85,0,6.85,0l1-.11,6-.05,11.29.05H85.28l3-.4a5.31,5.31,0,0,0,1.39-2.37c.14-.3.32-.71.55-1.24l2.2,0c.34,0,.84,0,1.5,0,0,2.25,0,5.64,0,10.16l0,4.35,0,2.49a10,10,0,0,1-.2,2.19,17.78,17.78,0,0,1-3.6.79,33.44,33.44,0,0,1-2.83-5.52,22.05,22.05,0,0,0-1.93-4,2.81,2.81,0,0,0-1.4-.83q-1.2-.24-10.62-.24c-.94,0-2.1.07-3.51.2a26.13,26.13,0,0,0-.25,3.12l0,6.54v14.36l.15,15.48,0,6.34a16.24,16.24,0,0,0,.6,5.08,13.45,13.45,0,0,0,3,.64c.27,0,1.5.29,3.71.78a20.61,20.61,0,0,1,2.67.78c.16,1.17.25,1.89.25,2.15a7.86,7.86,0,0,1-.15,1.27c-.74,0-1.34.05-1.8.05-3.43,0-6.35-.13-8.75-.37s-6.75-.37-13-.37c-1,0-3.94.2-8.8.59-1.9.13-3.13.2-3.7.2,0-.49-.07-.87-.1-1.13L43.54,203v-.39a7.14,7.14,0,0,1,4.15-2.1,38.61,38.61,0,0,0,7.2-2.2,6.1,6.1,0,0,0,.6-2.44q.34-5.87.35-18.65l-.25-18.46a77.21,77.21,0,0,0-.3-9.23,1.3,1.3,0,0,0-.35-.66,1.27,1.27,0,0,0-.7-.26c-1-.13-4.4-.2-10.1-.2q-4.7,0-6.3.88-2.15,1.22-6.44,6.64c-.84,1-1.45,1.56-1.85,1.56a10.94,10.94,0,0,1-2.95-1.9,96,96,0,0,0,4.3-12.7C31.43,141,31.81,139.77,32.05,139.12Z" transform="translate(-24.6 -17.73)"/><path d="M100,202c.53-.13,2-.32,4.45-.58a3.21,3.21,0,0,0,2-.69,7.38,7.38,0,0,0,.5-3.46v-3.47l.15-3.66v-4l.05-1-.05-2.44.1-.83.2-17.73V162.8q0-9.08-.5-11.23a3.22,3.22,0,0,0-1.43-2c-.75-.49-2.5-.94-5.27-1.37v-1c0-.49,0-1.09.1-1.81l4.21-.88c.84-.22,1.64-.42,2.41-.58a38.52,38.52,0,0,0,7.06-2.44,13.91,13.91,0,0,1,1.41-.74l2.71.2-.1,29.2a33.93,33.93,0,0,1,8.28-5,21.08,21.08,0,0,1,7.78-1.47,15.28,15.28,0,0,1,6.66,1.35,11.84,11.84,0,0,1,4.37,3.32,12.12,12.12,0,0,1,2.2,4.81,39.44,39.44,0,0,1,.44,7.32v3.12l.05,6.89-.25,10a1.4,1.4,0,0,0,.45.59,21,21,0,0,0,3,.68c.9.16,1.6.31,2.1.44a2.56,2.56,0,0,1,.4,1.16l-.05.39a10.23,10.23,0,0,0-.1,1.6l-1.15.07c-.5,0-1.48-.06-2.95-.19q-4.18-.39-7-.39c-1.24,0-2.89.06-5,.19-1.47.07-3.33.1-5.6.1a3.13,3.13,0,0,1-1-.15v-1.17l-.1-.63a3.34,3.34,0,0,1,.25-1.08,8.7,8.7,0,0,1,2.67-.71q1.53-.16,2.88-.36c.13-.62.22-1,.25-1.17l.25-7.13v-12a28.12,28.12,0,0,0-.6-7.2,5.59,5.59,0,0,0-2.5-3.07,8.45,8.45,0,0,0-4.6-1.2,13.88,13.88,0,0,0-6.12,1.44,20.39,20.39,0,0,0-5.07,3.39v8.55c0,4.69-.05,8.2-.12,10.55-.06,1.4-.08,2.27-.08,2.63a16,16,0,0,0,.45,4.64,2.12,2.12,0,0,0,1.09,1.07c1.24.1,2.26.16,3.08.18a8.45,8.45,0,0,1,2,.22c.07.8.1,1.36.1,1.68a7.8,7.8,0,0,1-.2,1.64L118.6,205c-2.1-.15-4-.22-5.66-.22l-7,.34-4.91,0a9.35,9.35,0,0,1-1-2.44Z" transform="translate(-24.6 -17.73)"/><path d="M158.9,179.18a21.43,21.43,0,0,1,2.3-5.52,25.34,25.34,0,0,1,6-6.26,19.75,19.75,0,0,1,5.73-3,20.73,20.73,0,0,1,5.34-.93,33.21,33.21,0,0,1,7.6.7,15.11,15.11,0,0,1,4.85,2,23.19,23.19,0,0,1,4.5,3.85,16.14,16.14,0,0,1,2.77,4.59,18.21,18.21,0,0,1,1.18,6.39l-5.55-.09c-1.53,0-4.9-.15-10.1-.43-1.93-.16-3.26-.25-4-.25l-5.39.1h-4.3a7.91,7.91,0,0,0-.1,1.18,24.3,24.3,0,0,0,.65,5.46,17,17,0,0,0,2,5,14,14,0,0,0,3.22,3.74,12.68,12.68,0,0,0,4,2.26l2.9.93a34.42,34.42,0,0,0,5.15-.25,22.8,22.8,0,0,0,4.22-1.24,24.74,24.74,0,0,0,4.43-2.57c1.2.85,2.2,1.61,3,2.3a28.84,28.84,0,0,1-9.13,6.86,25.55,25.55,0,0,1-10.57,2.12,25.26,25.26,0,0,1-6.44-.68,19.74,19.74,0,0,1-6.05-2.69,18.4,18.4,0,0,1-4.65-4.5,20.37,20.37,0,0,1-2.9-5.52,20,20,0,0,1-1.25-6A38.17,38.17,0,0,1,158.9,179.18Zm29-2.07a14.06,14.06,0,0,0-1.1-5.25,8.64,8.64,0,0,0-7.7-5.3,8.12,8.12,0,0,0-6,2.88,12.32,12.32,0,0,0-3,7.82l11.39.09c.74,0,1.77,0,3.1-.14,1-.09,1.65-.14,2.05-.14Z" transform="translate(-24.6 -17.73)"/><path d="M201.84,165.73a18.67,18.67,0,0,1,2.89-.29c.4,0,.85,0,1.35.05,3,.2,5.5.29,7.4.29h2.6l7.1-.44a4.8,4.8,0,0,1,.7.64c-.1,1.43-.19,2.34-.25,2.73-.5.1-.89.17-1.15.2-.77.1-1.33.19-1.7.27s-.77.15-1.2.22-.78.36-.85.68a19,19,0,0,0,.6,2l2.4,4.79q2.85,6.85,5.85,12.62l2.8,5.63q.3-.59,3.84-9.64,4.26-10.71,4.6-12.08a4.72,4.72,0,0,0,.2-1.28,7.27,7.27,0,0,0-.3-1.61,7,7,0,0,0-1.8-1,23.29,23.29,0,0,0-3.25-.51l-1.59-.39-.15-.67a6.37,6.37,0,0,1-.06-.72,9.73,9.73,0,0,1,.15-1.25c1-.07,1.72-.1,2.15-.1l4.05.25,2.7.09q1.7,0,5.9-.48c1.73-.2,3-.31,3.9-.35.06.81.1,1.42.1,1.83,0,.2,0,.49,0,.87a9,9,0,0,1-2,.68c-1.2.29-2.25.57-3.15.82a4.45,4.45,0,0,0-1,1q-.85,1.86-3.45,8.11l-3.61,9.44-8.36,19.45-5.76,12.9a27.44,27.44,0,0,1-4.45,6.4,6.51,6.51,0,0,1-2.2,1.56,13,13,0,0,1-4.65.78c-.16,0-1.08-.11-2.75-.34a7.07,7.07,0,0,1-3.55-2.1,3.68,3.68,0,0,1-1-2.49,6.91,6.91,0,0,1,2.35-5,7.12,7.12,0,0,1,3.1-1.27q2.25,0,5.25,2.29a4.1,4.1,0,0,0,2.25,1.13,1.5,1.5,0,0,0,1.35-.93,110.93,110.93,0,0,0,5.6-11.72l-9.22-19.9q-5.19-12-7.93-16.77a12.55,12.55,0,0,0-2-2.88,5.64,5.64,0,0,0-1.79-.78,6.28,6.28,0,0,1-1.51-.59Q202,166.74,201.84,165.73Z" transform="translate(-24.6 -17.73)"/><path d="M255.12,191.42a12.56,12.56,0,0,1,2.2-.3c.23,0,.58,0,1.05,0l.45.49a51.34,51.34,0,0,0,3.54,5.62,21,21,0,0,0,3.45,3.22,15.71,15.71,0,0,0,3.6,1.61,10.41,10.41,0,0,0,3.5.59,7.9,7.9,0,0,0,5.4-2,5.69,5.69,0,0,0,2.25-4.27,4.25,4.25,0,0,0-.85-2.66,8.54,8.54,0,0,0-3.4-2.18,54.29,54.29,0,0,0-6.27-1.76q-5-1.22-6.08-1.61a13.79,13.79,0,0,1-4.17-2.44,10.79,10.79,0,0,1-2.77-3.51,11.67,11.67,0,0,1-1.3-4.79,14.4,14.4,0,0,1,1.1-6.08,12.81,12.81,0,0,1,3.09-4.17,13.51,13.51,0,0,1,4.38-2.49,17.32,17.32,0,0,1,6.27-1.13,48.82,48.82,0,0,1,8.35.64,22,22,0,0,1,6.1,1.9q.3,1.13.85,5.18c.36,2.7.55,4.3.55,4.78a2.08,2.08,0,0,1-.15.74,7.86,7.86,0,0,1-2.15.39,13.8,13.8,0,0,1-1.45-.1c-.3-.46-.7-1.14-1.2-2a18,18,0,0,0-4.93-6.13,9.81,9.81,0,0,0-5.82-1.78,8.79,8.79,0,0,0-5.8,2,4.77,4.77,0,0,0-1.7,3.86,4.67,4.67,0,0,0,1.78,3.27q1.72,1.71,6.08,2.59a50.86,50.86,0,0,1,9.67,2.83,14.62,14.62,0,0,1,6.34,4.83A11.49,11.49,0,0,1,288.9,193a12,12,0,0,1-4.37,9.45q-4.36,3.78-12.77,3.78-1.1,0-5.75-.49a37,37,0,0,1-4.95-1c-.46-.13-1.68-.6-3.64-1.42a1.76,1.76,0,0,1-.78-.71,23.49,23.49,0,0,1-.67-4.07Q255.16,192.6,255.12,191.42Z" transform="translate(-24.6 -17.73)"/><path d="M336.53,169.49a19.42,19.42,0,0,1,4.78,7,20,20,0,0,1,1.58,7.4,23.18,23.18,0,0,1-2.06,10.55,20.43,20.43,0,0,1-8.35,8.93,25,25,0,0,1-12.21,2.88A24.37,24.37,0,0,1,307,202.79a21.25,21.25,0,0,1-7.75-7.76A22.66,22.66,0,0,1,297,184.24a20.77,20.77,0,0,1,1.1-6.57,19,19,0,0,1,3-5.73,21,21,0,0,1,4.23-4.11,23.46,23.46,0,0,1,6.73-3.34,29,29,0,0,1,8.18-1Q330.67,163.49,336.53,169.49ZM309.2,186.37c.3,4,.51,6.37.65,7a17.33,17.33,0,0,0,2,5.62,8,8,0,0,0,3.15,2.69,11,11,0,0,0,5.24,1.17,8.78,8.78,0,0,0,6.15-2.27q2.51-2.28,3.6-7.11a54,54,0,0,0,.7-10.42q0-8.89-3-12.59a10.47,10.47,0,0,0-14.27-1.59,11.21,11.21,0,0,0-3.52,6.21Q309.29,177.71,309.2,186.37Z" transform="translate(-24.6 -17.73)"/><path d="M348.43,202c.54-.13,2-.32,4.45-.58a3.21,3.21,0,0,0,2-.69,7.38,7.38,0,0,0,.5-3.46v-3.47l.15-3.66v-4l.05-1-.05-2.44.1-.83.2-17.73V162.8q0-9.08-.5-11.23a3.2,3.2,0,0,0-1.42-2c-.75-.49-2.51-.94-5.28-1.37v-1c0-.49,0-1.09.1-1.81l4.21-.88c.84-.22,1.64-.42,2.41-.58a38.52,38.52,0,0,0,7.06-2.44,15.06,15.06,0,0,1,1.41-.74l2.71.2-.1,29.2a34.11,34.11,0,0,1,8.28-5,21.13,21.13,0,0,1,7.79-1.47,15.28,15.28,0,0,1,6.66,1.35,11.8,11.8,0,0,1,4.36,3.32,12,12,0,0,1,2.2,4.81,38.29,38.29,0,0,1,.45,7.32v3.12l.05,6.89-.25,10a1.26,1.26,0,0,0,.45.59,20.59,20.59,0,0,0,2.95.68c.9.16,1.6.31,2.1.44a2.65,2.65,0,0,1,.39,1.16l-.05.39a10.49,10.49,0,0,0-.09,1.6l-1.15.07c-.5,0-1.49-.06-2.95-.19q-4.2-.39-7.05-.39c-1.23,0-2.88.06-4.95.19-1.47.07-3.33.1-5.6.1a3.18,3.18,0,0,1-1-.15v-1.17l-.1-.63a3.63,3.63,0,0,1,.25-1.08,8.69,8.69,0,0,1,2.68-.71c1-.11,2-.23,2.87-.36.13-.62.22-1,.25-1.17l.25-7.13v-12a28.12,28.12,0,0,0-.6-7.2,5.59,5.59,0,0,0-2.5-3.07,8.45,8.45,0,0,0-4.6-1.2,13.88,13.88,0,0,0-6.12,1.44,20.58,20.58,0,0,0-5.07,3.39v8.55c0,4.69,0,8.2-.12,10.55-.06,1.4-.08,2.27-.08,2.63a16,16,0,0,0,.45,4.64,2.11,2.11,0,0,0,1.1,1.07c1.23.1,2.25.16,3.07.18a8.47,8.47,0,0,1,2,.22c.06.8.1,1.36.1,1.68a8.53,8.53,0,0,1-.2,1.64l-5.56-.22c-2.11-.15-4-.22-5.67-.22l-7,.34-4.91,0a9.35,9.35,0,0,1-1.05-2.44Z" transform="translate(-24.6 -17.73)"/><path d="M405.11,202.64a10.4,10.4,0,0,1,2.4-.78,12.73,12.73,0,0,0,3.2-.74,2.22,2.22,0,0,0,1-1.07,18.72,18.72,0,0,0,.3-4.3v-4.26l.05-3.47-.15-5.13v-3.08a21.09,21.09,0,0,0-.5-5,2.88,2.88,0,0,0-1.25-1.47,16.53,16.53,0,0,0-4.75-1.9l-.05-2.35a7.08,7.08,0,0,1,1.18-.26q.52-.07,4-1c1.83-.65,3-1.1,3.55-1.36.17-.1.43-.25.8-.44a15.78,15.78,0,0,1,1.35-1,19.22,19.22,0,0,0,3.6-3.56l2.7-.2-.1,5.52a10.82,10.82,0,0,0-.1,1.32c0,.26,0,1,.1,2.24a28.81,28.81,0,0,1,7.53-4.88,22.49,22.49,0,0,1,8.44-1.81,14.88,14.88,0,0,1,8.23,2.28,10.92,10.92,0,0,1,4.64,5.26q1.09,3,1.1,12l-.2,15.95a3.82,3.82,0,0,0,.4,1.86,9.24,9.24,0,0,0,2.75.69l2.45.46a2.55,2.55,0,0,1,.45,1.54c0,.38,0,.91-.05,1.58l-9.8-.68-2.9.1h-2.3l-6.6.44h-1.7c0-.41,0-.73,0-.95,0-.56,0-1.18.1-1.84.47-.1,1.64-.26,3.5-.49a12.15,12.15,0,0,0,1.65-.34c.67-.26,1-.52,1.15-.78a8.36,8.36,0,0,0,.4-3.18q0-4.11,0-6.31l0-5.67q0-10.32-1.34-12.86a6.1,6.1,0,0,0-5.69-3.67,13.64,13.64,0,0,0-5.78,1.4,26,26,0,0,0-6.18,4.23l-.1.83.1,3.07-.1,3.28.2,7.81-.1,1.22c0,5.31.22,8.3.65,9s2.1,1.44,5,2.28a8,8,0,0,1,.16,1.22,7.25,7.25,0,0,1-.36,1.81c-1,0-1.9,0-2.6,0a27,27,0,0,1-3.31-.32l-5.36-.11c-2.67,0-6.52.11-11.57.34a2.67,2.67,0,0,1-.2-1C405.06,203.92,405.08,203.41,405.11,202.64Z" transform="translate(-24.6 -17.73)"/></g></svg>