<?xml version="1.0" standalone="no"?>
<!DOCTYPE svg PUBLIC "-//W3C//DTD SVG 20010904//EN"
 "http://www.w3.org/TR/2001/REC-SVG-20010904/DTD/svg10.dtd">
<svg version="1.0" xmlns="http://www.w3.org/2000/svg"
 width="512.000000pt" height="512.000000pt" viewBox="0 0 512.000000 512.000000"
 preserveAspectRatio="xMidYMid meet">
<metadata>
Created by potrace 1.14, written by Peter Selinger 2001-2017
</metadata>
<g transform="translate(0.000000,512.000000) scale(0.100000,-0.100000)"
fill="#000000" stroke="none">
<path d="M1167 5063 c-9 -3 -15 -8 -12 -13 3 -5 -5 -16 -17 -24 -12 -9 -19
-16 -14 -16 5 0 -1 -9 -14 -20 -13 -11 -20 -20 -15 -20 4 0 2 -7 -5 -15 -7 -8
-17 -12 -23 -8 -6 3 -7 1 -3 -5 4 -7 -4 -23 -18 -37 -14 -14 -23 -25 -20 -25
5 0 -8 -17 -46 -58 -14 -15 -25 -31 -25 -34 0 -4 -7 -16 -16 -26 -15 -18 -16
-48 -3 -90 2 -7 4 -14 4 -17 1 -3 8 -28 17 -57 8 -29 17 -62 19 -73 2 -11 8
-33 12 -50 l8 -30 75 1 c41 1 117 4 170 7 78 4 96 2 96 -9 0 -8 -4 -14 -9 -14
-5 0 -7 -4 -3 -9 3 -5 -1 -16 -9 -24 -8 -8 -12 -17 -9 -21 4 -3 1 -6 -6 -6 -7
0 -9 -4 -6 -10 3 -5 2 -10 -4 -10 -6 0 -13 -11 -17 -25 -3 -14 -10 -25 -16
-25 -5 0 -7 -4 -4 -9 3 -5 -1 -14 -9 -21 -8 -7 -12 -16 -9 -21 3 -5 0 -9 -6
-9 -6 0 -8 -4 -5 -10 3 -5 1 -10 -5 -10 -6 0 -9 -4 -5 -9 3 -5 -2 -17 -11 -25
-8 -9 -12 -16 -8 -16 3 0 0 -7 -7 -16 -7 -9 -14 -23 -15 -32 -2 -8 -6 -18 -11
-21 -15 -11 -43 -68 -36 -75 3 -3 1 -6 -5 -6 -7 0 -12 -7 -12 -15 0 -8 -5 -15
-11 -15 -5 0 -8 -4 -4 -9 3 -5 -2 -16 -10 -24 -8 -9 -15 -20 -15 -26 0 -6 -5
-11 -11 -11 -5 0 -7 -4 -4 -10 3 -5 1 -10 -5 -10 -6 0 -9 -4 -6 -9 3 -5 -1
-14 -9 -21 -8 -7 -12 -16 -9 -21 3 -5 0 -9 -6 -9 -6 0 -8 -4 -5 -10 3 -5 1
-10 -5 -10 -6 0 -8 -4 -5 -10 3 -5 1 -10 -5 -10 -6 0 -8 -4 -5 -10 3 -5 1 -10
-5 -10 -6 0 -8 -4 -5 -10 3 -5 1 -10 -5 -10 -6 0 -8 -4 -5 -10 3 -5 2 -10 -4
-10 -5 0 -15 -16 -22 -35 -7 -19 -17 -35 -21 -35 -4 0 -7 -3 -7 -7 3 -19 -2
-34 -9 -29 -4 2 -9 -5 -9 -17 -1 -12 -7 -23 -13 -25 -5 -2 -8 -8 -4 -13 3 -5
0 -9 -5 -9 -6 0 -11 -7 -11 -15 0 -8 -5 -15 -11 -15 -5 0 -7 -4 -4 -10 3 -5 1
-10 -5 -10 -6 0 -8 -4 -5 -10 3 -5 1 -10 -5 -10 -6 0 -8 -4 -5 -10 3 -5 1 -10
-5 -10 -8 0 -9 -7 -5 -17 4 -10 8 -22 9 -28 2 -5 8 -21 13 -35 6 -14 8 -29 6
-34 -3 -4 0 -12 6 -16 7 -4 13 -13 14 -21 2 -8 6 -20 10 -26 5 -7 5 -13 1 -13
-3 0 -1 -7 6 -15 7 -8 10 -15 6 -15 -10 0 23 -60 34 -61 6 -1 13 -2 18 -3 15
-4 108 -19 127 -21 34 -4 119 -16 145 -22 14 -2 40 -5 58 -6 17 -1 32 -4 32
-7 0 -3 10 -5 23 -6 12 0 47 -4 77 -8 30 -4 61 -8 68 -9 6 0 12 -2 12 -5 0 -3
-47 -50 -105 -105 -95 -90 -103 -101 -93 -121 6 -11 11 -23 9 -26 -1 -3 6 -38
16 -79 17 -73 18 -75 124 -182 59 -60 113 -109 120 -109 7 0 10 -3 7 -6 -8 -8
37 -54 52 -54 7 0 11 -3 7 -6 -7 -7 38 -54 52 -54 5 0 13 -5 17 -12 5 -7 2 -8
-7 -3 -8 4 4 -8 26 -29 22 -20 44 -36 49 -36 5 0 7 -2 4 -5 -3 -3 46 -56 109
-118 63 -62 145 -143 181 -181 37 -38 80 -81 96 -95 16 -14 47 -45 69 -68 22
-24 47 -43 54 -43 8 0 12 -4 9 -9 -3 -5 0 -14 8 -20 13 -11 67 1 93 21 15 12
19 2 22 -52 5 -83 10 -102 36 -142 47 -71 16 -54 -85 47 l-100 99 -45 -22
c-25 -12 -49 -22 -53 -22 -4 0 -8 15 -9 33 -1 17 -8 61 -15 97 l-13 65 -428
425 c-236 234 -466 462 -510 508 l-82 83 -80 -6 c-44 -4 -93 -8 -110 -11 -16
-2 -61 -6 -100 -9 -38 -2 -92 -7 -120 -10 -27 -3 -88 -8 -135 -11 -47 -3 -86
-7 -87 -8 -3 -3 15 -46 69 -168 12 -27 25 -48 29 -48 4 0 25 -15 45 -34 21
-19 42 -33 46 -30 4 3 8 -2 8 -10 0 -9 4 -16 10 -16 5 0 19 -8 29 -17 37 -34
50 -43 61 -43 6 0 8 -5 5 -10 -3 -5 1 -10 9 -10 9 0 16 -4 16 -10 0 -5 7 -10
16 -10 8 0 12 -4 9 -10 -3 -5 -1 -10 4 -10 10 0 37 -19 70 -50 9 -9 34 -29 56
-45 22 -17 52 -41 67 -53 14 -13 28 -22 30 -21 2 2 17 -10 35 -26 18 -17 49
-43 69 -60 20 -16 42 -35 48 -41 6 -5 36 -29 67 -51 31 -23 62 -48 70 -55 8
-8 36 -30 62 -50 l48 -37 -28 -14 c-37 -19 -149 -57 -168 -57 -8 0 -30 21 -50
47 -20 26 -65 79 -100 118 -35 39 -79 90 -97 113 l-33 42 -64 -6 c-36 -3 -76
-8 -90 -10 -42 -7 -84 -14 -111 -19 -21 -4 -58 -10 -125 -20 -11 -2 -45 -6
-75 -10 -30 -4 -62 -9 -70 -11 -8 -1 -23 -3 -33 -3 -17 -1 -17 -2 0 -28 10
-16 20 -30 23 -33 3 -3 6 -12 8 -20 2 -8 8 -16 13 -18 5 -2 9 -12 9 -23 0 -10
5 -19 10 -19 6 0 10 -6 10 -14 0 -8 9 -24 21 -37 11 -13 17 -17 14 -9 -4 8 5
0 20 -18 14 -17 33 -32 41 -32 8 0 12 -5 9 -10 -3 -6 0 -10 8 -10 8 0 17 -7
21 -15 3 -8 11 -15 18 -15 7 0 19 -9 26 -21 7 -12 16 -19 18 -16 3 2 23 -13
45 -35 22 -22 38 -42 36 -45 -4 -4 -497 -135 -570 -152 -35 -7 -35 -15 -5 -49
13 -15 37 -45 53 -67 57 -77 118 -151 190 -230 111 -123 130 -146 162 -197 22
-35 33 -44 44 -37 23 14 28 11 57 -34 15 -24 97 -124 183 -222 86 -99 158
-184 160 -189 2 -5 15 -21 29 -36 14 -14 30 -34 36 -45 10 -18 13 -18 31 -5
12 8 83 60 158 114 76 54 145 105 154 112 9 7 50 37 91 66 41 30 90 65 108 78
l33 25 19 -25 c11 -14 25 -36 32 -50 7 -14 16 -27 19 -30 10 -8 53 -94 51
-103 -1 -4 2 -7 7 -7 8 0 151 -237 164 -273 6 -15 11 -12 41 20 18 21 35 41
36 45 1 3 35 42 75 85 40 43 71 81 69 85 -3 5 1 8 8 8 7 1 30 22 51 48 37 46
37 48 31 112 -8 85 -10 88 -162 243 l-87 89 47 41 c26 23 67 59 92 80 l45 37
38 -47 c21 -27 41 -50 44 -53 3 -3 10 -12 15 -21 12 -23 72 -95 112 -135 17
-18 32 -37 32 -43 0 -5 8 -16 19 -23 10 -7 18 -16 17 -20 -2 -10 83 -114 144
-176 19 -20 26 -29 15 -21 -12 8 -8 0 10 -23 17 -21 33 -38 38 -38 4 0 7 -7 7
-16 0 -8 4 -13 9 -9 5 3 13 -4 16 -16 4 -12 27 -41 51 -65 24 -24 40 -44 36
-44 -4 -1 3 -9 16 -20 13 -10 22 -22 22 -25 -2 -6 51 -74 77 -100 7 -7 9 -15
6 -19 -4 -3 2 -6 12 -6 10 0 15 -3 12 -7 -4 -3 7 -19 23 -35 17 -15 30 -32 30
-36 0 -5 21 -30 46 -56 25 -27 40 -45 32 -40 -7 5 -2 -5 12 -22 20 -24 28 -28
38 -18 6 7 12 16 12 20 0 5 11 18 24 29 13 11 25 24 27 30 2 5 7 9 12 8 4 -2
7 2 7 7 0 12 11 27 55 72 17 17 23 27 15 23 -8 -4 -3 4 12 17 15 14 25 28 21
32 -3 3 -2 6 4 6 6 0 20 16 32 36 12 19 25 33 30 29 8 -4 22 36 23 62 0 5 4
14 10 21 6 7 8 15 5 18 -3 3 -2 17 3 30 9 23 -8 42 -205 242 -118 119 -215
220 -215 225 0 20 30 -8 214 -193 109 -110 203 -200 209 -200 6 0 7 -3 4 -6
-4 -4 9 -19 28 -34 19 -15 32 -30 29 -32 -2 -3 9 -11 26 -18 29 -12 95 -7 221
15 9 2 34 6 55 9 22 4 80 13 129 21 50 7 110 17 135 20 25 4 52 9 60 10 8 2
27 4 41 4 21 1 30 9 42 38 9 21 22 54 31 74 l15 37 -67 50 c-37 27 -143 108
-237 179 -93 71 -280 212 -415 314 -366 277 -410 311 -410 318 0 6 157 62 174
61 9 0 19 -9 216 -200 l115 -111 50 5 c28 3 84 8 125 11 41 4 86 8 98 10 13 2
63 7 110 10 48 4 90 10 93 13 4 4 17 43 30 86 l23 79 -25 19 c-13 11 -33 28
-45 37 -12 10 -28 22 -37 27 -8 5 -30 23 -49 39 -18 17 -57 50 -86 74 -40 33
-50 46 -40 52 8 4 70 28 139 53 68 25 156 59 194 74 l70 29 27 79 c14 43 26
86 27 94 0 8 -54 56 -121 105 -66 50 -127 96 -134 103 -7 7 -50 40 -94 73
l-81 60 -54 -25 c-30 -14 -57 -22 -59 -18 -2 4 2 37 9 72 l14 65 -28 25 c-15
14 -56 50 -91 80 -123 107 -140 122 -140 132 0 9 19 8 125 -7 17 -2 48 -6 70
-9 22 -4 51 -8 65 -11 64 -13 78 -16 120 -21 25 -3 56 -7 70 -9 14 -2 43 -7
64 -10 22 -3 51 -7 65 -10 56 -9 88 -14 131 -20 25 -3 63 -8 85 -12 39 -6 69
-10 130 -18 17 -2 48 -6 70 -10 22 -4 47 -8 55 -10 22 -4 50 13 50 30 0 12
230 473 250 500 4 6 22 48 40 95 17 47 43 109 56 138 36 79 34 86 -26 84 -22
-1 -280 -36 -350 -47 -32 -5 -106 -16 -145 -20 -16 -2 -43 -6 -60 -10 -16 -3
-43 -8 -60 -10 -16 -2 -44 -6 -61 -9 -18 -3 -52 -8 -75 -11 -24 -3 -60 -7 -79
-10 -52 -8 -100 -15 -145 -20 -22 -2 -51 -7 -65 -10 -14 -3 -47 -7 -74 -11
-28 -3 -53 -7 -57 -10 -4 -2 -11 1 -15 7 -7 12 55 139 68 139 5 0 7 4 3 9 -3
5 0 15 7 23 7 7 14 20 16 28 2 8 7 17 11 20 4 3 15 23 25 45 31 70 39 85 48
85 5 0 7 4 4 8 -3 5 5 24 16 43 12 19 23 40 24 48 2 8 6 17 11 20 4 3 9 12 11
20 2 8 12 27 23 42 10 15 19 32 19 38 0 6 5 11 10 11 6 0 9 3 9 8 -3 16 2 31
14 44 6 8 39 67 71 133 33 66 64 123 70 127 6 4 7 8 2 8 -5 0 -2 8 6 18 24 28
66 139 73 192 7 56 19 108 32 138 13 32 13 37 -1 48 -9 6 -47 14 -84 18 -66 7
-107 12 -167 21 -16 2 -59 7 -95 11 -36 4 -74 10 -85 14 -29 10 -100 7 -100
-5 -1 -10 -22 -46 -58 -99 -12 -18 -14 -26 -6 -22 8 4 5 0 -5 -8 -11 -9 -16
-16 -10 -16 5 0 5 -3 -1 -8 -6 -4 -17 -20 -25 -37 -8 -16 -22 -41 -32 -54 -10
-13 -16 -27 -13 -31 3 -4 -2 -11 -11 -14 -8 -3 -12 -10 -9 -16 3 -5 1 -10 -5
-10 -6 0 -9 -4 -6 -9 3 -5 -1 -12 -10 -15 -8 -3 -12 -10 -9 -16 3 -5 1 -10 -5
-10 -8 0 -27 -34 -32 -60 -1 -3 -8 -11 -15 -18 -7 -7 -13 -20 -13 -28 0 -8 -4
-14 -10 -14 -5 0 -10 -5 -10 -10 0 -6 -12 -29 -27 -53 -14 -23 -26 -48 -26
-54 0 -7 -4 -13 -9 -13 -5 0 -7 -4 -4 -9 3 -5 -1 -12 -10 -15 -9 -4 -14 -13
-10 -22 3 -8 2 -12 -4 -9 -6 3 -10 1 -10 -6 0 -7 -6 -20 -14 -28 -8 -9 -16
-23 -18 -31 -2 -8 -9 -21 -16 -28 -7 -8 -9 -18 -6 -24 4 -7 2 -8 -4 -4 -7 4
-12 2 -12 -3 0 -18 -3 -26 -17 -39 -7 -8 -11 -18 -8 -23 4 -5 1 -9 -4 -9 -6 0
-21 -21 -33 -47 -12 -27 -24 -50 -27 -53 -16 -14 -40 -68 -33 -75 4 -5 1 -5
-5 -1 -12 6 -18 -5 -14 -26 0 -5 -3 -8 -8 -8 -5 0 -24 -28 -41 -62 -18 -35
-41 -75 -51 -89 -18 -26 -42 -80 -39 -88 1 -2 -2 -7 -7 -10 -20 -13 -73 -113
-67 -124 4 -7 3 -9 -1 -4 -5 4 -19 -11 -32 -33 -22 -36 -24 -51 -25 -170 0
-72 2 -133 4 -136 3 -3 25 -7 49 -10 24 -3 55 -7 69 -10 14 -3 39 -7 55 -9
102 -14 121 -17 128 -24 5 -5 -16 -23 -45 -41 -29 -18 -55 -36 -58 -40 -14
-20 -253 -171 -259 -164 -4 5 -58 77 -119 160 -101 136 -131 187 -102 169 6
-3 10 1 10 9 0 9 5 16 12 16 6 0 8 3 5 7 -4 3 -1 13 7 22 8 9 14 19 13 22 -3
9 37 79 45 79 5 0 8 7 8 15 0 8 5 15 11 15 5 0 7 5 4 10 -3 6 -1 10 5 10 6 0
9 4 5 9 -3 5 0 15 7 23 7 7 14 20 16 28 2 8 8 18 14 21 5 3 9 9 9 13 -3 20 0
26 9 21 6 -4 9 -3 8 2 -4 11 34 87 45 91 4 2 5 8 1 13 -3 5 0 9 6 9 6 0 9 4 6
8 -3 5 2 18 12 28 9 11 18 26 20 34 2 8 10 20 18 26 7 6 14 18 14 27 0 9 7 22
15 31 9 8 15 17 14 18 -3 8 25 58 33 58 5 0 6 5 3 10 -3 6 -1 10 5 10 6 0 9 4
5 9 -3 5 0 15 7 23 7 7 14 20 16 28 2 8 8 17 13 18 5 2 7 7 5 11 -3 4 8 27 25
52 16 24 29 50 29 57 0 6 5 12 12 12 6 0 8 3 5 6 -4 4 2 19 13 34 11 16 20 33
20 39 0 6 5 11 11 11 5 0 7 5 4 10 -3 6 -1 10 4 10 6 0 11 7 11 15 0 8 5 15
10 15 6 0 9 3 9 8 -3 19 2 33 11 27 5 -3 7 0 4 8 -3 8 1 21 9 28 14 14 17 22
17 40 0 5 5 7 10 4 6 -4 9 -3 8 2 -4 14 13 53 23 53 6 0 8 4 4 9 -3 5 1 15 8
23 7 7 15 18 17 23 9 30 24 55 33 55 6 0 8 3 4 6 -3 3 8 28 24 55 16 28 29 54
29 59 0 6 3 10 8 10 4 0 8 10 8 23 14 208 17 238 29 257 15 24 -29 20 -68 -6
-23 -16 -50 -32 -59 -36 -10 -4 -18 -12 -18 -18 0 -5 -4 -10 -10 -10 -14 0
-100 -62 -100 -73 0 -4 -4 -6 -8 -3 -5 3 -20 -6 -35 -20 -15 -14 -27 -21 -27
-17 0 4 -6 1 -13 -7 -7 -8 -26 -24 -42 -36 -17 -11 -60 -41 -97 -66 -36 -26
-69 -44 -72 -41 -3 4 -6 -2 -6 -12 0 -10 -3 -15 -6 -12 -4 4 -21 -5 -38 -20
l-31 -26 -6 79 c-6 76 -17 167 -24 205 -2 10 -6 42 -10 71 -3 29 -8 69 -10 88
-3 19 -7 60 -11 90 -3 30 -7 56 -9 58 -4 4 -82 17 -175 28 -14 1 -45 5 -70 8
-25 3 -65 8 -89 11 -24 2 -51 7 -60 9 -20 6 -93 17 -141 21 -19 2 -53 6 -75
10 -22 3 -60 8 -85 11 -25 2 -56 6 -70 8 -32 5 -114 16 -165 21 -22 3 -56 7
-75 10 -34 6 -69 10 -148 19 -20 3 -53 7 -72 10 -39 7 -89 13 -168 22 -29 3
-63 7 -75 10 -12 3 -42 7 -67 9 -25 2 -54 6 -65 8 -11 2 -28 2 -38 0z m696
-626 c4 3 7 2 7 -4 0 -9 77 -39 93 -35 4 1 7 -3 7 -9 0 -6 6 -9 14 -6 17 7 27
-14 20 -45 -6 -28 -14 -95 -19 -163 -2 -27 -4 -50 -5 -50 -3 0 -10 -60 -14
-120 -3 -33 -7 -71 -10 -85 -3 -14 -7 -58 -10 -97 -3 -40 -7 -77 -10 -82 -6
-9 -15 -83 -21 -171 -2 -30 -4 -55 -5 -55 -3 0 -9 -40 -15 -112 -4 -43 -9 -81
-11 -84 -2 -4 0 -18 5 -32 9 -23 15 -53 26 -138 3 -19 7 -45 11 -59 3 -14 6
-30 6 -37 1 -6 8 -12 17 -12 19 0 60 -5 116 -15 22 -4 56 -9 75 -11 19 -3 49
-7 65 -10 17 -3 46 -7 65 -10 19 -2 42 -6 50 -8 24 -6 99 -18 205 -32 61 -9
66 -13 40 -31 -35 -26 -88 -67 -160 -128 -38 -32 -80 -65 -92 -73 -18 -12 -22
-22 -18 -47 2 -17 7 -62 10 -101 4 -38 7 -71 8 -71 19 -18 184 -134 189 -134
4 0 8 -6 8 -12 0 -7 -32 -28 -71 -46 l-71 -34 -32 38 c-43 51 -362 422 -394
459 -15 16 -53 61 -86 100 -32 38 -62 72 -65 75 -4 3 -14 15 -22 26 -8 12 -37
47 -66 77 -28 31 -54 65 -58 76 -3 11 6 109 20 218 15 109 33 248 41 308 8 61
17 133 20 160 3 28 12 97 20 155 8 58 16 128 19 155 27 270 46 344 80 315 7
-5 15 -7 18 -3z m860 -340 c31 -11 57 -23 56 -26 -1 -20 -248 -496 -259 -499
-10 -4 -11 11 -6 69 17 180 33 435 29 446 -3 8 0 27 7 43 l12 29 51 -21 c29
-11 78 -30 110 -41z"/>
</g>
</svg>
